<svg width="96" height="96" viewBox="0 0 96 96" fill="none" xmlns="http://www.w3.org/2000/svg">
<rect x="3" y="3" width="90" height="90" rx="45" fill="#C4FF61"/>
<rect x="3" y="3" width="90" height="90" rx="45" stroke="url(#paint0_linear_577_6918)" stroke-width="6"/>
<path fill-rule="evenodd" clip-rule="evenodd" d="M59.0758 68.5284C56.5337 65.9003 51.9399 61.151 48.2198 57.9693C45.0301 55.2412 41.5265 54.7529 38.634 55.2136C35.882 55.652 33.6028 56.951 32.415 58.0232L32.3816 58.0534L26.8994 63.3048L31.1263 67.6983L36.5343 62.518C36.9027 62.1999 38.0826 61.4688 39.5961 61.2278C41.0041 61.0035 42.6232 61.204 44.2477 62.5934C47.7051 65.5504 49.8384 67.8272 52.4296 70.5043C53.3503 71.4554 57.1832 73.5342 60.5989 70.0911C60.2672 69.7601 59.7419 69.2171 59.0758 68.5284Z" fill="black" fill-opacity="0.5"/>
<path fill-rule="evenodd" clip-rule="evenodd" d="M67.1429 36.4422C64.509 38.9787 59.7493 43.5625 56.5606 47.2745C53.8266 50.4573 53.3372 53.9532 53.799 56.8394C54.2382 59.5854 55.5401 61.8596 56.6147 63.0448L56.645 63.0781L61.9079 68.5483L66.3109 64.3306L61.1193 58.9345C60.8006 58.5669 60.0678 57.3896 59.8263 55.8794C59.6015 54.4745 59.8025 52.8588 61.1948 51.238C64.1584 47.7881 66.4401 45.6594 69.1231 43.0739C70.0763 42.1553 72.1596 38.3307 68.709 34.9225C68.3773 35.2535 67.8331 35.7776 67.1429 36.4422Z" fill="black" fill-opacity="0.5"/>
<path fill-rule="evenodd" clip-rule="evenodd" d="M35.1078 28.8496C37.6499 31.4778 42.2437 36.2271 45.9638 39.4088C49.1535 42.1369 52.657 42.6251 55.5496 42.1644C58.3016 41.7261 60.5808 40.4271 61.7686 39.3548L61.802 39.3246L67.2842 34.0732L63.0572 29.6798L57.6493 34.8601C57.2809 35.1781 56.101 35.9092 54.5875 36.1503C53.1795 36.3745 51.5603 36.174 49.9359 34.7847C46.4785 31.8276 44.3452 29.5509 41.754 26.8738C40.8333 25.9226 37.0004 23.8439 33.5847 27.2869C33.9164 27.6179 34.4417 28.161 35.1078 28.8496Z" fill="black" fill-opacity="0.5"/>
<path fill-rule="evenodd" clip-rule="evenodd" d="M27.4792 60.068C30.1131 57.5315 34.8728 52.9477 38.0614 49.2358C40.7955 46.053 41.2848 42.5571 40.8231 39.6709C40.3838 36.9248 39.082 34.6506 38.0074 33.4655L37.9771 33.4321L32.7142 27.9619L28.3111 32.1796L33.5028 37.5758C33.8215 37.9434 34.5542 39.1207 34.7958 40.6308C35.0206 42.0358 34.8196 43.6514 33.4272 45.2723C30.4637 48.7222 28.1819 50.8508 25.499 53.4364C24.5458 54.355 22.4625 58.1796 25.9131 61.5878C26.2448 61.2568 26.789 60.7327 27.4792 60.068Z" fill="black" fill-opacity="0.5"/>
<path fill-rule="evenodd" clip-rule="evenodd" d="M60.4537 67.1504C57.9117 64.5223 53.3178 59.7729 49.5977 56.5912C46.408 53.8631 42.9045 53.3749 40.0119 53.8356C37.2599 54.2739 34.9807 55.5729 33.793 56.6452L33.7595 56.6754L28.2773 61.9268L32.5043 66.3202L37.9122 61.1399C38.2806 60.8219 39.4605 60.0908 40.974 59.8497C42.382 59.6255 44.0012 59.826 45.6256 61.2153C49.083 64.1724 51.2163 66.4491 53.8075 69.1262C54.7282 70.0774 58.5611 72.1561 61.9768 68.7131C61.6451 68.3821 61.1198 67.839 60.4537 67.1504Z" fill="black"/>
<path fill-rule="evenodd" clip-rule="evenodd" d="M68.5208 35.0642C65.887 37.6007 61.1272 42.1845 57.9386 45.8964C55.2045 49.0792 54.7152 52.5751 55.1769 55.4613C55.6162 58.2074 56.918 60.4816 57.9926 61.6667L58.0229 61.7001L63.2858 67.1703L67.6889 62.9526L62.4972 57.5564C62.1785 57.1888 61.4458 56.0115 61.2042 54.5014C60.9794 53.0964 61.1804 51.4808 62.5728 49.8599C65.5363 46.41 67.8181 44.2814 70.501 41.6958C71.4542 40.7772 73.5375 36.9526 70.0869 33.5444C69.7552 33.8754 69.211 34.3995 68.5208 35.0642Z" fill="black"/>
<path fill-rule="evenodd" clip-rule="evenodd" d="M36.4857 27.4716C39.0278 30.0997 43.6216 34.849 47.3417 38.0307C50.5315 40.7588 54.035 41.2471 56.9275 40.7864C59.6796 40.348 61.9588 39.049 63.1465 37.9768L63.1799 37.9466L68.6621 32.6952L64.4352 28.3017L59.0272 33.482C58.6588 33.8001 57.4789 34.5312 55.9655 34.7722C54.5574 34.9965 52.9383 34.796 51.3139 33.4066C47.8564 30.4496 45.7231 28.1728 43.1319 25.4957C42.2113 24.5446 38.3783 22.4658 34.9627 25.9089C35.2944 26.2399 35.8196 26.7829 36.4857 27.4716Z" fill="black"/>
<path fill-rule="evenodd" clip-rule="evenodd" d="M28.8571 58.69C31.491 56.1535 36.2507 51.5697 39.4394 47.8577C42.1734 44.6749 42.6628 41.179 42.201 38.2928C41.7618 35.5468 40.4599 33.2726 39.3853 32.0874L39.355 32.0541L34.0921 26.5839L29.6891 30.8016L34.8807 36.1977C35.1994 36.5653 35.9322 37.7426 36.1737 39.2528C36.3985 40.6577 36.1975 42.2734 34.8052 43.8942C31.8416 47.3441 29.5599 49.4728 26.8769 52.0583C25.9237 52.9769 23.8404 56.8015 27.291 60.2097C27.6227 59.8787 28.1669 59.3546 28.8571 58.69Z" fill="black"/>
<defs>
<linearGradient id="paint0_linear_577_6918" x1="14.399" y1="98.9338" x2="101.627" y2="6.85355" gradientUnits="userSpaceOnUse">
<stop stop-color="#9945FF"/>
<stop offset="1" stop-color="#19FB9B"/>
</linearGradient>
</defs>
</svg>
